<svg xmlns="http://www.w3.org/2000/svg" width="300" height="100" viewBox="0 0 300 100"><defs><filter id="text-grunge" x="-20%" y="-20%" width="140%" height="140%"><feTurbulence type="fractalNoise" baseFrequency="0.9" numOctaves="4" result="noise" seed="42"/><feDisplacementMap in="SourceGraphic" in2="noise" scale="0.8" xChannelSelector="R" yChannelSelector="G"/></filter></defs>
  <text x="20" y="50" font-family="Arial" font-size="24" fill="black" transform="rotate(0.303 20.000 50.000)" opacity="0.994"><tspan x="19.956" y="50.190" transform="rotate(0.58 20.000 50.000)" filter="url(#text-grunge)">G</tspan><tspan x="26.213" y="49.730" opacity="0.998" transform="rotate(-0.07 26.000 50.000)" filter="url(#text-grunge)">r</tspan><tspan x="31.911" y="50.178" transform="rotate(-0.44 32.000 50.000)" filter="url(#text-grunge)">u</tspan><tspan x="38.121" y="49.780" opacity="0.987" transform="rotate(-0.54 38.000 50.000)" filter="url(#text-grunge)">n</tspan><tspan x="44.382" y="49.654" opacity="0.991" transform="rotate(0.22 44.000 50.000)" filter="url(#text-grunge)">g</tspan><tspan x="50.196" y="49.610" opacity="0.979" transform="rotate(0.32 50.000 50.000)" filter="url(#text-grunge)">e</tspan><tspan x="56.064" y="50.023" opacity="0.986" transform="rotate(-0.31 56.000 50.000)" filter="url(#text-grunge)"> </tspan><tspan x="61.835" y="49.809" transform="rotate(0.49 62.000 50.000)" filter="url(#text-grunge)">T</tspan><tspan x="67.896" y="49.721" transform="rotate(0.25 68.000 50.000)" filter="url(#text-grunge)">e</tspan><tspan x="74.184" y="50.154" transform="rotate(-0.44 74.000 50.000)" filter="url(#text-grunge)">s</tspan><tspan x="80.345" y="49.808" transform="rotate(0.20 80.000 50.000)" filter="url(#text-grunge)">t</tspan></text>
  <text x="20" y="80" font-family="Arial" font-size="16" fill="gray" transform="rotate(0.157 20.000 80.000)"><tspan x="19.858" y="79.755" opacity="0.985" transform="rotate(0.12 20.000 80.000)" filter="url(#text-grunge)">H</tspan><tspan x="25.902" y="80.069" opacity="0.992" transform="rotate(0.54 26.000 80.000)" filter="url(#text-grunge)">e</tspan><tspan x="31.826" y="79.607" opacity="0.971" transform="rotate(0.56 32.000 80.000)" filter="url(#text-grunge)">l</tspan><tspan x="37.986" y="80.013" transform="rotate(0.60 38.000 80.000)" filter="url(#text-grunge)">l</tspan><tspan x="44.227" y="80.140" opacity="0.975" transform="rotate(0.53 44.000 80.000)" filter="url(#text-grunge)">o</tspan><tspan x="49.793" y="80.156" transform="rotate(-0.32 50.000 80.000)" filter="url(#text-grunge)"> </tspan><tspan x="56.244" y="80.302" transform="rotate(-0.48 56.000 80.000)" filter="url(#text-grunge)">W</tspan><tspan x="62.293" y="79.804" transform="rotate(-0.49 62.000 80.000)" filter="url(#text-grunge)">o</tspan><tspan x="67.847" y="80.352" opacity="0.984" transform="rotate(0.01 68.000 80.000)" filter="url(#text-grunge)">r</tspan><tspan x="73.640" y="79.965" transform="rotate(0.58 74.000 80.000)" filter="url(#text-grunge)">l</tspan><tspan x="79.768" y="80.154" opacity="0.982" transform="rotate(0.55 80.000 80.000)" filter="url(#text-grunge)">d</tspan></text>
</svg>